<svg width="590" height="503" viewBox="0 0 590 503" fill="none" xmlns="http://www.w3.org/2000/svg">
<rect x="502" width="88" height="503" fill="#E33424"/>
<rect width="89" height="503" fill="#E33424"/>
<rect x="120" y="57" width="25" height="446" fill="#E33424"/>
<rect x="189" y="59" width="10" height="444" fill="#E33424"/>
<rect x="389" y="62" width="10" height="441" fill="#E33424"/>
<rect x="443" y="57" width="25" height="446" fill="#E33424"/>
<path d="M0 0H590L468 65H120.5L0 0Z" fill="#E33424"/>
<rect x="22" y="26" width="5" height="477" fill="#F0A738"/>
<rect x="525" y="23" width="5" height="480" fill="#F0A738"/>
<rect x="42" y="26" width="5" height="477" fill="#F0A738"/>
<rect x="545" y="23" width="5" height="480" fill="#F0A738"/>
<rect x="62" y="26" width="5" height="477" fill="#F0A738"/>
<rect x="565" y="23" width="5" height="480" fill="#F0A738"/>
<rect x="22" y="20" width="548" height="6" fill="#F0A738"/>
<rect x="62" y="38" width="468" height="4" fill="#F0A738"/>
<path d="M398 71.0001L398 100L444 71L398 71.0001Z" fill="#E33424"/>
<rect width="51" height="7" transform="matrix(-1 0 0 1 447.5 64.5)" fill="#E33424"/>
<path d="M190.5 69.5001L190.5 99.5L144.5 69.5L190.5 69.5001Z" fill="#E33424"/>
<rect x="141" y="63" width="51" height="7" fill="#E33424"/>
<rect x="198" y="64" width="191" height="439" fill="#E33424"/>
<path d="M124 42L130 42L216 99.2332L210.259 99.2332L124 42Z" fill="#F0A738"/>
<path d="M197.5 42L203 42L262.5 99.5L257.5 99.5L197.5 42Z" fill="#F0A738"/>
<path d="M392 41.5479L386.5 41.5479L327 99.0479L332 99.0479L392 41.5479Z" fill="#F0A738"/>
<path d="M464.157 41.761L458.157 41.761L372.157 98.9942L377.898 98.9942L464.157 41.761Z" fill="#F0A738"/>
<rect x="293" y="41" width="4" height="58" fill="#F0A738"/>
<rect x="203" y="99" width="182" height="404" fill="black"/>
<rect x="352" y="268" width="8" height="137" rx="4" fill="#F0A738"/>
<rect x="231" y="182" width="125" height="48" fill="#F0A738"/>
</svg>
