<svg width="814" height="1698" viewBox="0 0 814 1698" fill="none" xmlns="http://www.w3.org/2000/svg">
<circle cx="816.892" cy="792.957" r="635.486" transform="rotate(12.4104 816.892 792.957)" stroke="black" stroke-width="60"/>
<line x1="475.389" y1="251.651" x2="1154.26" y2="1317.9" stroke="black" stroke-width="20"/>
<line y1="-10" x2="1289.5" y2="-10" transform="matrix(-0.84255 0.538617 0.538617 0.84255 1359.34 444.451)" stroke="black" stroke-width="20"/>
<line y1="-10" x2="1289.5" y2="-10" transform="matrix(0.976633 0.214913 0.214913 -0.976633 170.594 633.407)" stroke="black" stroke-width="20"/>
<line x1="675.533" y1="1409.17" x2="952.663" y2="149.803" stroke="black" stroke-width="20"/>
<rect x="422.089" y="267.428" width="133.206" height="173.605" rx="15" transform="rotate(-0.0900371 422.089 267.428)" fill="black"/>
<circle cx="268.5" cy="475.519" r="13.5" fill="#F0A738"/>
<g filter="url(#filter0_f_50_33)">
<circle cx="268.5" cy="475.519" r="13.5" fill="#F0A738"/>
</g>
<circle cx="401.5" cy="315.519" r="13.5" fill="#F0A738"/>
<g filter="url(#filter1_f_50_33)">
<circle cx="401.5" cy="315.519" r="13.5" fill="#F0A738"/>
</g>
<circle cx="575.5" cy="209.519" r="13.5" fill="#F0A738"/>
<g filter="url(#filter2_f_50_33)">
<circle cx="575.5" cy="209.519" r="13.5" fill="#F0A738"/>
</g>
<circle cx="764.5" cy="158.5" r="13.5" fill="#F0A738"/>
<g filter="url(#filter3_f_50_33)">
<circle cx="764.5" cy="158.5" r="13.5" fill="#F0A738"/>
</g>
<rect x="179.833" y="665.942" width="133.206" height="173.605" rx="15" fill="black"/>
<rect x="232.163" y="1085.2" width="133.206" height="173.605" rx="15" transform="rotate(12.4104 232.163 1085.2)" fill="black"/>
<rect x="612.069" y="1365.57" width="133.206" height="173.605" rx="15" transform="rotate(12.4104 612.069 1365.57)" fill="black"/>
<circle cx="198.5" cy="658.5" r="13.5" fill="#F0A738"/>
<g filter="url(#filter4_f_50_33)">
<circle cx="198.5" cy="658.5" r="13.5" fill="#F0A738"/>
</g>
<circle cx="187.5" cy="853.5" r="13.5" fill="#F0A738"/>
<path fill-rule="evenodd" clip-rule="evenodd" d="M960.957 165.943L961.939 166.159C964.522 166.729 966.154 169.286 965.583 171.869C965.012 174.453 962.456 176.084 959.872 175.514L958.906 175.301C956.321 174.734 954.686 172.18 955.252 169.596C955.819 167.012 958.373 165.376 960.957 165.943ZM866.589 157.191C866.427 159.832 864.154 161.841 861.514 161.678C861.185 161.658 860.856 161.638 860.528 161.618C857.887 161.459 855.875 159.19 856.033 156.549C856.192 153.909 858.461 151.896 861.102 152.055C861.435 152.075 861.769 152.095 862.103 152.116C864.743 152.278 866.752 154.551 866.589 157.191ZM1051.26 197.83C1052.22 195.365 1055 194.145 1057.47 195.106C1057.78 195.228 1058.09 195.349 1058.4 195.471C1060.86 196.436 1062.08 199.215 1061.11 201.678C1060.15 204.142 1057.37 205.357 1054.91 204.392C1054.6 204.272 1054.29 204.152 1053.99 204.033C1051.52 203.072 1050.3 200.295 1051.26 197.83ZM766.526 158.183C766.781 160.816 764.853 163.157 762.22 163.413C761.893 163.444 761.566 163.476 761.239 163.508C758.606 163.768 756.262 161.844 756.003 159.211C755.743 156.578 757.667 154.233 760.3 153.974C760.632 153.941 760.964 153.909 761.296 153.877C763.929 153.622 766.271 155.549 766.526 158.183ZM1141.67 240.734C1143 238.452 1145.94 237.685 1148.22 239.022C1148.51 239.19 1148.8 239.359 1149.08 239.528C1151.36 240.869 1152.13 243.804 1150.79 246.085C1149.45 248.366 1146.51 249.128 1144.23 247.787C1143.95 247.621 1143.66 247.455 1143.38 247.289C1141.1 245.952 1140.33 243.017 1141.67 240.734ZM1224.17 297.342C1225.85 295.298 1228.87 295.003 1230.92 296.682C1231.17 296.894 1231.43 297.105 1231.69 297.317C1233.73 299 1234.02 302.019 1232.34 304.061C1230.65 306.102 1227.63 306.393 1225.59 304.71C1225.34 304.501 1225.09 304.293 1224.83 304.084C1222.79 302.405 1222.49 299.386 1224.17 297.342ZM667.878 174.927C668.545 177.487 667.01 180.103 664.449 180.769C664.132 180.852 663.814 180.935 663.497 181.018C660.938 181.688 658.32 180.157 657.649 177.598C656.979 175.039 658.51 172.421 661.069 171.75C661.391 171.666 661.713 171.582 662.036 171.498C664.596 170.831 667.212 172.366 667.878 174.927ZM1296.77 366.199C1298.74 364.442 1301.77 364.623 1303.53 366.602C1303.75 366.851 1303.97 367.1 1304.19 367.349C1305.94 369.331 1305.76 372.358 1303.78 374.111C1301.8 375.864 1298.77 375.679 1297.02 373.697C1296.8 373.452 1296.58 373.206 1296.36 372.961C1294.61 370.982 1294.79 367.955 1296.77 366.199ZM573.086 206.949C574.145 209.374 573.038 212.198 570.614 213.256C570.313 213.388 570.013 213.519 569.712 213.651C567.289 214.713 564.464 213.611 563.401 211.188C562.339 208.765 563.442 205.94 565.864 204.877C566.086 204.78 566.308 204.682 566.53 204.585L566.779 204.477C569.204 203.418 572.028 204.525 573.086 206.949ZM1357.73 445.541C1359.96 444.114 1362.92 444.764 1364.35 446.992C1364.53 447.272 1364.7 447.553 1364.88 447.834C1366.31 450.064 1365.65 453.025 1363.42 454.449C1361.19 455.872 1358.23 455.218 1356.81 452.988C1356.63 452.711 1356.45 452.435 1356.28 452.158C1354.85 449.93 1355.5 446.968 1357.73 445.541ZM484.449 253.372C485.872 255.602 485.218 258.563 482.988 259.987C482.711 260.163 482.435 260.34 482.158 260.517C479.931 261.943 476.968 261.294 475.541 259.066C474.115 256.838 474.764 253.875 476.992 252.449C477.098 252.381 477.205 252.312 477.311 252.244C477.486 252.133 477.66 252.022 477.834 251.911C480.064 250.487 483.026 251.141 484.449 253.372ZM1405.61 533.401C1408.03 532.339 1410.85 533.442 1411.92 535.864C1412.05 536.169 1412.18 536.474 1412.32 536.779C1413.38 539.204 1412.27 542.028 1409.84 543.086C1407.42 544.145 1404.6 543.038 1403.54 540.614C1403.41 540.313 1403.28 540.013 1403.14 539.712C1402.08 537.289 1403.18 534.464 1405.61 533.401ZM404.111 313.017C405.864 314.999 405.679 318.026 403.697 319.779C403.452 319.996 403.206 320.214 402.961 320.432C400.982 322.188 397.955 322.007 396.199 320.028C394.443 318.05 394.623 315.022 396.602 313.266C396.851 313.045 397.1 312.824 397.349 312.604C399.331 310.851 402.358 311.036 404.111 313.017ZM1439.2 627.649C1441.76 626.979 1444.37 628.51 1445.04 631.069C1445.13 631.391 1445.21 631.713 1445.3 632.036C1445.96 634.596 1444.43 637.212 1441.87 637.878C1439.31 638.545 1436.69 637.01 1436.03 634.449L1435.78 633.497C1435.11 630.938 1436.64 628.32 1439.2 627.649ZM334.061 384.458C336.102 386.141 336.393 389.16 334.71 391.202C334.564 391.378 334.419 391.555 334.273 391.732L334.084 391.962C332.405 394.006 329.386 394.301 327.342 392.621C325.298 390.942 325.003 387.923 326.682 385.879C326.839 385.688 326.996 385.498 327.153 385.307L327.317 385.108C329 383.066 332.019 382.776 334.061 384.458ZM276.085 466.008C278.366 467.348 279.128 470.284 277.788 472.565C277.621 472.848 277.455 473.131 277.289 473.415C275.952 475.698 273.017 476.464 270.735 475.127C268.452 473.79 267.685 470.856 269.022 468.573C269.19 468.285 269.359 467.998 269.528 467.71C270.869 465.429 273.804 464.667 276.085 466.008ZM1457.58 726.002C1460.22 725.743 1462.56 727.667 1462.82 730.3C1462.85 730.632 1462.89 730.964 1462.92 731.296C1463.17 733.929 1461.24 736.271 1458.61 736.526C1455.98 736.781 1453.64 734.853 1453.38 732.22C1453.35 731.893 1453.32 731.566 1453.29 731.239C1453.03 728.606 1454.95 726.262 1457.58 726.002ZM231.678 555.681C234.142 556.646 235.357 559.425 234.392 561.888C234.272 562.195 234.152 562.501 234.033 562.808C233.072 565.273 230.295 566.492 227.83 565.531C225.365 564.57 224.146 561.793 225.106 559.328C225.228 559.017 225.349 558.706 225.471 558.394C226.436 555.931 229.215 554.716 231.678 555.681ZM1460.24 826.033C1462.89 826.192 1464.9 828.461 1464.74 831.102L1464.68 832.102C1464.52 834.743 1462.24 836.752 1459.6 836.589C1456.96 836.427 1454.95 834.154 1455.12 831.514C1455.14 831.185 1455.16 830.856 1455.18 830.528C1455.33 827.887 1457.6 825.875 1460.24 826.033ZM201.869 651.211C204.453 651.782 206.084 654.339 205.514 656.922L205.301 657.889C204.734 660.473 202.18 662.109 199.596 661.542C197.012 660.975 195.376 658.421 195.943 655.837L196.159 654.856C196.729 652.272 199.286 650.641 201.869 651.211ZM1447.2 925.252C1449.78 925.819 1451.42 928.373 1450.85 930.957L1450.64 931.938C1450.06 934.522 1447.51 936.153 1444.92 935.583C1442.34 935.012 1440.71 932.456 1441.28 929.872L1441.49 928.905C1442.06 926.321 1444.61 924.686 1447.2 925.252ZM187.191 750.205C189.832 750.368 191.841 752.64 191.678 755.281C191.658 755.609 191.638 755.938 191.618 756.266C191.46 758.907 189.19 760.92 186.549 760.761C183.909 760.603 181.896 758.333 182.055 755.692C182.075 755.359 182.095 755.025 182.116 754.692C182.278 752.051 184.551 750.042 187.191 750.205ZM1418.96 1021.26C1421.43 1022.22 1422.65 1025 1421.69 1027.47L1421.32 1028.4C1420.36 1030.86 1417.58 1032.08 1415.12 1031.11C1412.65 1030.15 1411.44 1027.37 1412.4 1024.91C1412.52 1024.6 1412.64 1024.29 1412.76 1023.99C1413.72 1021.52 1416.5 1020.3 1418.96 1021.26ZM188.183 850.268C190.816 850.013 193.158 851.941 193.413 854.574C193.444 854.901 193.476 855.228 193.509 855.555C193.768 858.188 191.844 860.532 189.211 860.792C186.578 861.051 184.233 859.127 183.974 856.494C183.941 856.162 183.909 855.83 183.877 855.498C183.622 852.865 185.55 850.524 188.183 850.268ZM1376.06 1111.67C1378.34 1113 1379.11 1115.94 1377.77 1118.22C1377.6 1118.51 1377.44 1118.8 1377.27 1119.08C1375.93 1121.36 1372.99 1122.13 1370.71 1120.79C1368.43 1119.45 1367.67 1116.51 1369.01 1114.23C1369.17 1113.95 1369.34 1113.66 1369.51 1113.38C1370.84 1111.1 1373.78 1110.33 1376.06 1111.67ZM1319.45 1194.17C1321.5 1195.85 1321.79 1198.87 1320.11 1200.92C1319.9 1201.17 1319.69 1201.43 1319.48 1201.69C1317.79 1203.73 1314.77 1204.02 1312.73 1202.34C1310.69 1200.65 1310.4 1197.63 1312.08 1195.59C1312.29 1195.34 1312.5 1195.09 1312.71 1194.83C1314.39 1192.79 1317.41 1192.49 1319.45 1194.17ZM204.927 948.916C207.487 948.249 210.103 949.785 210.769 952.345C210.852 952.662 210.935 952.98 211.018 953.297C211.688 955.856 210.157 958.475 207.598 959.145C205.039 959.816 202.421 958.284 201.75 955.725C201.666 955.403 201.582 955.081 201.498 954.758C200.831 952.198 202.366 949.582 204.927 948.916ZM1250.6 1266.77C1252.35 1268.74 1252.17 1271.77 1250.19 1273.53C1249.94 1273.75 1249.69 1273.97 1249.44 1274.19C1247.46 1275.94 1244.44 1275.76 1242.68 1273.78C1240.93 1271.8 1241.12 1268.77 1243.1 1267.01C1243.34 1266.8 1243.59 1266.58 1243.83 1266.36C1245.81 1264.61 1248.84 1264.79 1250.6 1266.77ZM236.949 1043.71C239.374 1042.65 242.198 1043.76 243.256 1046.18L243.651 1047.08C244.713 1049.5 243.611 1052.33 241.188 1053.39C238.765 1054.46 235.94 1053.35 234.877 1050.93C234.743 1050.62 234.61 1050.32 234.477 1050.01C233.418 1047.59 234.525 1044.77 236.949 1043.71ZM283.372 1132.35C285.602 1130.92 288.563 1131.58 289.987 1133.81C290.163 1134.08 290.34 1134.36 290.517 1134.64C291.944 1136.86 291.294 1139.83 289.066 1141.25C286.838 1142.68 283.875 1142.03 282.449 1139.8C282.269 1139.52 282.09 1139.24 281.911 1138.96C280.487 1136.73 281.142 1133.77 283.372 1132.35ZM1171.25 1327.73C1172.68 1329.96 1172.03 1332.92 1169.8 1334.35C1169.52 1334.53 1169.24 1334.7 1168.96 1334.88C1166.73 1336.31 1163.77 1335.65 1162.35 1333.42C1160.92 1331.19 1161.58 1328.23 1163.81 1326.81C1164.08 1326.63 1164.36 1326.45 1164.64 1326.28C1166.86 1324.85 1169.83 1325.5 1171.25 1327.73ZM343.017 1212.68C344.999 1210.93 348.026 1211.12 349.779 1213.1C349.997 1213.34 350.214 1213.59 350.432 1213.83C352.188 1215.81 352.007 1218.84 350.029 1220.6C348.05 1222.35 345.022 1222.17 343.266 1220.19C343.045 1219.94 342.824 1219.69 342.604 1219.44C340.851 1217.46 341.036 1214.44 343.017 1212.68ZM1083.39 1375.61C1084.46 1378.03 1083.35 1380.85 1080.93 1381.92C1080.62 1382.05 1080.32 1382.18 1080.01 1382.32C1077.59 1383.38 1074.77 1382.27 1073.71 1379.84C1072.65 1377.42 1073.76 1374.6 1076.18 1373.54C1076.48 1373.41 1076.78 1373.28 1077.08 1373.14C1079.5 1372.08 1082.33 1373.18 1083.39 1375.61ZM414.459 1282.73C416.141 1280.69 419.16 1280.4 421.202 1282.08C421.455 1282.29 421.708 1282.5 421.962 1282.71C424.006 1284.39 424.301 1287.41 422.621 1289.45C420.942 1291.5 417.923 1291.79 415.879 1290.11L415.108 1289.48C413.066 1287.79 412.776 1284.77 414.459 1282.73ZM989.145 1409.2C989.816 1411.76 988.285 1414.37 985.725 1415.04L984.759 1415.3C982.198 1415.96 979.583 1414.43 978.916 1411.87C978.25 1409.31 979.785 1406.69 982.345 1406.03C982.663 1405.94 982.98 1405.86 983.297 1405.78C985.857 1405.11 988.475 1406.64 989.145 1409.2ZM496.008 1340.71C497.348 1338.43 500.284 1337.67 502.565 1339.01C502.848 1339.17 503.131 1339.34 503.415 1339.51C505.698 1340.84 506.464 1343.78 505.127 1346.06C503.791 1348.34 500.856 1349.11 498.573 1347.77C498.285 1347.6 497.998 1347.44 497.71 1347.27C495.429 1345.93 494.667 1342.99 496.008 1340.71ZM890.792 1427.58C891.051 1430.22 889.127 1432.56 886.494 1432.82C886.162 1432.85 885.83 1432.89 885.498 1432.92C882.865 1433.17 880.524 1431.24 880.268 1428.61C880.013 1425.98 881.941 1423.64 884.574 1423.38C884.901 1423.35 885.228 1423.32 885.555 1423.29C888.188 1423.03 890.533 1424.95 890.792 1427.58ZM585.681 1385.12C586.646 1382.65 589.425 1381.44 591.888 1382.4C592.195 1382.52 592.501 1382.64 592.808 1382.76C595.273 1383.72 596.492 1386.5 595.531 1388.96C594.57 1391.43 591.793 1392.65 589.328 1391.69L588.395 1391.32C585.931 1390.36 584.716 1387.58 585.681 1385.12ZM790.761 1430.24C790.603 1432.89 788.333 1434.9 785.693 1434.74C785.359 1434.72 785.025 1434.7 784.692 1434.68C782.051 1434.52 780.043 1432.24 780.205 1429.6C780.368 1426.96 782.64 1424.95 785.281 1425.12C785.609 1425.14 785.938 1425.16 786.266 1425.18C788.907 1425.33 790.92 1427.6 790.761 1430.24ZM681.211 1414.92C681.782 1412.34 684.339 1410.71 686.922 1411.28L687.889 1411.49C690.473 1412.06 692.109 1414.61 691.542 1417.2C690.975 1419.78 688.421 1421.42 685.837 1420.85L684.856 1420.64C682.273 1420.06 680.641 1417.51 681.211 1414.92Z" fill="#F0A738"/>
<rect x="216" y="703" width="75" height="102" rx="5" fill="#F0A738"/>
<rect x="452" y="302.019" width="75" height="102" rx="5" fill="#F0A738"/>
<defs>
<filter id="filter0_f_50_33" x="245" y="452.019" width="47" height="47" filterUnits="userSpaceOnUse" color-interpolation-filters="sRGB">
<feFlood flood-opacity="0" result="BackgroundImageFix"/>
<feBlend mode="normal" in="SourceGraphic" in2="BackgroundImageFix" result="shape"/>
<feGaussianBlur stdDeviation="5" result="effect1_foregroundBlur_50_33"/>
</filter>
<filter id="filter1_f_50_33" x="378" y="292.019" width="47" height="47" filterUnits="userSpaceOnUse" color-interpolation-filters="sRGB">
<feFlood flood-opacity="0" result="BackgroundImageFix"/>
<feBlend mode="normal" in="SourceGraphic" in2="BackgroundImageFix" result="shape"/>
<feGaussianBlur stdDeviation="5" result="effect1_foregroundBlur_50_33"/>
</filter>
<filter id="filter2_f_50_33" x="552" y="186.019" width="47" height="47" filterUnits="userSpaceOnUse" color-interpolation-filters="sRGB">
<feFlood flood-opacity="0" result="BackgroundImageFix"/>
<feBlend mode="normal" in="SourceGraphic" in2="BackgroundImageFix" result="shape"/>
<feGaussianBlur stdDeviation="5" result="effect1_foregroundBlur_50_33"/>
</filter>
<filter id="filter3_f_50_33" x="741" y="135" width="47" height="47" filterUnits="userSpaceOnUse" color-interpolation-filters="sRGB">
<feFlood flood-opacity="0" result="BackgroundImageFix"/>
<feBlend mode="normal" in="SourceGraphic" in2="BackgroundImageFix" result="shape"/>
<feGaussianBlur stdDeviation="5" result="effect1_foregroundBlur_50_33"/>
</filter>
<filter id="filter4_f_50_33" x="175" y="635" width="47" height="47" filterUnits="userSpaceOnUse" color-interpolation-filters="sRGB">
<feFlood flood-opacity="0" result="BackgroundImageFix"/>
<feBlend mode="normal" in="SourceGraphic" in2="BackgroundImageFix" result="shape"/>
<feGaussianBlur stdDeviation="5" result="effect1_foregroundBlur_50_33"/>
</filter>
</defs>
</svg>
