<svg width="433" height="432" viewBox="0 0 433 432" fill="none" xmlns="http://www.w3.org/2000/svg">
<g clip-path="url(#clip0_151_92)">
<circle cx="216.5" cy="215.5" r="216.5" fill="#147C52"/>
<circle cx="216.5" cy="216.5" r="163.5" fill="#147C52" stroke="white" stroke-width="2"/>
<rect x="181" y="-7" width="70" height="55" fill="#D9D9D9"/>
<rect x="181" y="385" width="70" height="55" fill="#D9D9D9"/>
<rect x="378.917" y="155.633" width="70" height="55" transform="rotate(-122.798 378.917 155.633)" fill="#D9D9D9"/>
<rect x="42.6294" y="363.268" width="70" height="55" transform="rotate(-120.868 42.6294 363.268)" fill="#D9D9D9"/>
<rect width="70" height="55" transform="matrix(-0.444188 0.895934 0.895934 0.444188 384.093 259)" fill="#D9D9D9"/>
<rect width="70" height="55" transform="matrix(-0.447979 0.894044 0.894044 0.447979 30.4912 82.4812)" fill="#D9D9D9"/>
<circle cx="122" cy="52" r="6" fill="#D9D9D9"/>
<circle cx="320.141" cy="357.31" r="5.33413" transform="rotate(73.0763 320.141 357.31)" fill="#D9D9D9"/>
<circle cx="308.086" cy="366.554" r="5.33413" transform="rotate(73.0763 308.086 366.554)" fill="#D9D9D9"/>
<circle cx="329.644" cy="370.217" r="5.33413" transform="rotate(73.0763 329.644 370.217)" fill="#D9D9D9"/>
<circle cx="317.588" cy="379.46" r="5.33413" transform="rotate(73.0763 317.588 379.46)" fill="#D9D9D9"/>
<circle cx="338.887" cy="382.272" r="5.33413" transform="rotate(73.0763 338.887 382.272)" fill="#D9D9D9"/>
<circle cx="326.832" cy="391.516" r="5.33413" transform="rotate(73.0763 326.832 391.516)" fill="#D9D9D9"/>
<circle cx="135.506" cy="380.506" r="5.33413" transform="rotate(140.681 135.506 380.506)" fill="#D9D9D9"/>
<circle cx="119.912" cy="372.326" r="5.33413" transform="rotate(140.681 119.912 372.326)" fill="#D9D9D9"/>
<circle cx="126.725" cy="396.039" r="5.33413" transform="rotate(140.681 126.725 396.039)" fill="#D9D9D9"/>
<circle cx="110.687" cy="387.052" r="5.33413" transform="rotate(140.681 110.687 387.052)" fill="#D9D9D9"/>
<circle cx="38.2045" cy="232.783" r="5.33413" transform="rotate(-158.297 38.2045 232.783)" fill="#D9D9D9"/>
<circle cx="38.2045" cy="209.783" r="5.33413" transform="rotate(-158.297 38.2045 209.783)" fill="#D9D9D9"/>
<circle cx="15.2045" cy="233.783" r="5.33413" transform="rotate(-158.297 15.2045 233.783)" fill="#D9D9D9"/>
<circle cx="15.2048" cy="209.783" r="5.33413" transform="rotate(-158.297 15.2048 209.783)" fill="#D9D9D9"/>
<circle cx="26.2048" cy="220.783" r="5.33413" transform="rotate(-158.297 26.2048 220.783)" fill="#D9D9D9"/>
<circle cx="399.812" cy="205.074" r="5.33413" transform="rotate(59.1983 399.812 205.074)" fill="#D9D9D9"/>
<circle cx="297.842" cy="56.7269" r="5.33413" transform="rotate(-14.723 297.842 56.7269)" fill="#D9D9D9"/>
<circle cx="413.654" cy="226.129" r="5.33413" transform="rotate(59.1983 413.654 226.129)" fill="#D9D9D9"/>
<circle cx="331.783" cy="50.8995" r="5.33413" transform="rotate(-14.723 331.783 50.8995)" fill="#D9D9D9"/>
<circle cx="314.194" cy="54.1553" r="5.33413" transform="rotate(-14.723 314.194 54.1553)" fill="#D9D9D9"/>
<g clip-path="url(#clip1_151_92)">
<path d="M252.086 229.914C242.888 242.926 231.269 252.805 217.23 259.551C203.191 266.298 188.426 269.671 172.935 269.671C155.991 269.671 140.984 266.78 127.913 260.997C115.327 254.732 104.918 246.299 96.6887 235.697C88.459 224.613 82.1657 211.843 77.8087 197.386C73.9359 182.447 71.9995 166.544 71.9995 149.677V-52H128.64V145.34C128.64 167.026 133.965 184.615 144.615 198.109C155.265 211.602 170.756 218.349 191.089 218.349C225.944 218.349 246.276 198.59 252.086 159.074V-52H308V454H252.086V229.914Z" fill="white"/>
</g>
</g>
<defs>
<clipPath id="clip0_151_92">
<rect x="-0.000488281" width="433" height="432" rx="216" fill="white"/>
</clipPath>
<clipPath id="clip1_151_92">
<rect x="53.9995" y="53" width="325" height="327" rx="162.5" fill="white"/>
</clipPath>
</defs>
</svg>
