<svg width="433" height="432" viewBox="0 0 433 432" fill="none" xmlns="http://www.w3.org/2000/svg">
<g clip-path="url(#clip0_154_4)">
<circle cx="216.5" cy="215.5" r="216.5" fill="#E33424"/>
<circle cx="216.5" cy="216.5" r="163.5" fill="#E33424" stroke="white" stroke-width="2"/>
<rect x="181" y="-7" width="70" height="55" fill="#D9D9D9"/>
<rect x="181" y="385" width="70" height="55" fill="#D9D9D9"/>
<rect x="378.918" y="155.633" width="70" height="55" transform="rotate(-122.798 378.918 155.633)" fill="#D9D9D9"/>
<rect x="42.6299" y="363.268" width="70" height="55" transform="rotate(-120.868 42.6299 363.268)" fill="#D9D9D9"/>
<rect width="70" height="55" transform="matrix(-0.444188 0.895934 0.895934 0.444188 384.093 259)" fill="#D9D9D9"/>
<rect width="70" height="55" transform="matrix(-0.447979 0.894044 0.894044 0.447979 30.4917 82.4812)" fill="#D9D9D9"/>
<circle cx="122" cy="52" r="6" fill="#D9D9D9"/>
<circle cx="320.142" cy="357.31" r="5.33413" transform="rotate(73.0763 320.142 357.31)" fill="#D9D9D9"/>
<circle cx="308.086" cy="366.554" r="5.33413" transform="rotate(73.0763 308.086 366.554)" fill="#D9D9D9"/>
<circle cx="329.644" cy="370.217" r="5.33413" transform="rotate(73.0763 329.644 370.217)" fill="#D9D9D9"/>
<circle cx="317.589" cy="379.46" r="5.33413" transform="rotate(73.0763 317.589 379.46)" fill="#D9D9D9"/>
<circle cx="338.888" cy="382.272" r="5.33413" transform="rotate(73.0763 338.888 382.272)" fill="#D9D9D9"/>
<circle cx="326.832" cy="391.516" r="5.33413" transform="rotate(73.0763 326.832 391.516)" fill="#D9D9D9"/>
<circle cx="135.507" cy="380.506" r="5.33413" transform="rotate(140.681 135.507 380.506)" fill="#D9D9D9"/>
<circle cx="119.912" cy="372.326" r="5.33413" transform="rotate(140.681 119.912 372.326)" fill="#D9D9D9"/>
<circle cx="126.726" cy="396.039" r="5.33413" transform="rotate(140.681 126.726 396.039)" fill="#D9D9D9"/>
<circle cx="110.687" cy="387.052" r="5.33413" transform="rotate(140.681 110.687 387.052)" fill="#D9D9D9"/>
<circle cx="38.205" cy="232.783" r="5.33413" transform="rotate(-158.297 38.205 232.783)" fill="#D9D9D9"/>
<circle cx="38.205" cy="209.783" r="5.33413" transform="rotate(-158.297 38.205 209.783)" fill="#D9D9D9"/>
<circle cx="15.205" cy="233.783" r="5.33413" transform="rotate(-158.297 15.205 233.783)" fill="#D9D9D9"/>
<circle cx="15.2053" cy="209.783" r="5.33413" transform="rotate(-158.297 15.2053 209.783)" fill="#D9D9D9"/>
<circle cx="26.2053" cy="220.783" r="5.33413" transform="rotate(-158.297 26.2053 220.783)" fill="#D9D9D9"/>
<circle cx="399.813" cy="205.074" r="5.33413" transform="rotate(59.1983 399.813 205.074)" fill="#D9D9D9"/>
<circle cx="297.842" cy="56.7269" r="5.33413" transform="rotate(-14.723 297.842 56.7269)" fill="#D9D9D9"/>
<circle cx="413.655" cy="226.129" r="5.33413" transform="rotate(59.1983 413.655 226.129)" fill="#D9D9D9"/>
<circle cx="331.784" cy="50.8995" r="5.33413" transform="rotate(-14.723 331.784 50.8995)" fill="#D9D9D9"/>
<circle cx="314.194" cy="54.1553" r="5.33413" transform="rotate(-14.723 314.194 54.1553)" fill="#D9D9D9"/>
<g clip-path="url(#clip1_154_4)">
<path d="M325.33 132.544H287.486C242.761 132.544 217.303 149.723 217.303 204.007V279.593C217.303 311.889 214.55 324.257 208.358 338H154C162.257 321.509 163.633 301.581 163.633 280.28V205.381C163.633 153.846 180.147 118.114 223.495 105.059C182.899 92.0029 164.321 59.02 164.321 6.11002V-33.0571C164.321 -104.52 195.972 -143 271.661 -143H379V338H325.33V132.544ZM325.33 -94.2128H273.037C233.128 -94.2128 217.303 -71.5371 217.303 -28.2472V17.7914C217.303 70.0143 242.761 83.7572 284.734 83.7572H325.33V-94.2128Z" fill="white"/>
</g>
</g>
<defs>
<clipPath id="clip0_154_4">
<rect width="433" height="432" rx="216" fill="white"/>
</clipPath>
<clipPath id="clip1_154_4">
<rect x="54" y="53" width="325" height="327" rx="162.5" fill="white"/>
</clipPath>
</defs>
</svg>
