<svg width="433" height="432" viewBox="0 0 433 432" fill="none" xmlns="http://www.w3.org/2000/svg">
<g clip-path="url(#clip0_151_2)">
<circle cx="216.5" cy="215.5" r="216.5" fill="#E33424"/>
<circle cx="216.5" cy="216.5" r="163.5" fill="#E33424" stroke="white" stroke-width="2"/>
<rect x="181" y="-7" width="70" height="55" fill="#D9D9D9"/>
<rect x="181" y="385" width="70" height="55" fill="#D9D9D9"/>
<rect x="378.917" y="155.633" width="70" height="55" transform="rotate(-122.798 378.917 155.633)" fill="#D9D9D9"/>
<rect x="42.6294" y="363.268" width="70" height="55" transform="rotate(-120.868 42.6294 363.268)" fill="#D9D9D9"/>
<rect width="70" height="55" transform="matrix(-0.444188 0.895934 0.895934 0.444188 384.093 259)" fill="#D9D9D9"/>
<rect width="70" height="55" transform="matrix(-0.447979 0.894044 0.894044 0.447979 30.4912 82.4812)" fill="#D9D9D9"/>
<circle cx="122" cy="52" r="6" fill="#D9D9D9"/>
<circle cx="320.141" cy="357.31" r="5.33413" transform="rotate(73.0763 320.141 357.31)" fill="#D9D9D9"/>
<circle cx="308.086" cy="366.554" r="5.33413" transform="rotate(73.0763 308.086 366.554)" fill="#D9D9D9"/>
<circle cx="329.644" cy="370.217" r="5.33413" transform="rotate(73.0763 329.644 370.217)" fill="#D9D9D9"/>
<circle cx="317.588" cy="379.46" r="5.33413" transform="rotate(73.0763 317.588 379.46)" fill="#D9D9D9"/>
<circle cx="338.887" cy="382.272" r="5.33413" transform="rotate(73.0763 338.887 382.272)" fill="#D9D9D9"/>
<circle cx="326.832" cy="391.516" r="5.33413" transform="rotate(73.0763 326.832 391.516)" fill="#D9D9D9"/>
<circle cx="135.506" cy="380.507" r="5.33413" transform="rotate(140.681 135.506 380.507)" fill="#D9D9D9"/>
<circle cx="119.912" cy="372.326" r="5.33413" transform="rotate(140.681 119.912 372.326)" fill="#D9D9D9"/>
<circle cx="126.725" cy="396.039" r="5.33413" transform="rotate(140.681 126.725 396.039)" fill="#D9D9D9"/>
<circle cx="110.687" cy="387.052" r="5.33413" transform="rotate(140.681 110.687 387.052)" fill="#D9D9D9"/>
<circle cx="38.2045" cy="232.783" r="5.33413" transform="rotate(-158.297 38.2045 232.783)" fill="#D9D9D9"/>
<circle cx="38.2045" cy="209.783" r="5.33413" transform="rotate(-158.297 38.2045 209.783)" fill="#D9D9D9"/>
<circle cx="15.2045" cy="233.783" r="5.33413" transform="rotate(-158.297 15.2045 233.783)" fill="#D9D9D9"/>
<circle cx="15.2048" cy="209.783" r="5.33413" transform="rotate(-158.297 15.2048 209.783)" fill="#D9D9D9"/>
<circle cx="26.2048" cy="220.783" r="5.33413" transform="rotate(-158.297 26.2048 220.783)" fill="#D9D9D9"/>
<circle cx="399.812" cy="205.074" r="5.33413" transform="rotate(59.1983 399.812 205.074)" fill="#D9D9D9"/>
<circle cx="297.842" cy="56.7269" r="5.33413" transform="rotate(-14.723 297.842 56.7269)" fill="#D9D9D9"/>
<circle cx="413.654" cy="226.129" r="5.33413" transform="rotate(59.1983 413.654 226.129)" fill="#D9D9D9"/>
<circle cx="331.783" cy="50.8995" r="5.33413" transform="rotate(-14.723 331.783 50.8995)" fill="#D9D9D9"/>
<circle cx="314.194" cy="54.1553" r="5.33413" transform="rotate(-14.723 314.194 54.1553)" fill="#D9D9D9"/>
<g clip-path="url(#clip1_151_2)">
<path d="M99.4116 -334C143.763 -334 176.89 -320.84 198.792 -294.52C220.694 -268.749 231.645 -233.656 231.645 -189.241V108.501C231.645 145.239 224.253 175.123 209.469 198.153C212.755 205.281 217.135 210.216 222.61 212.958C228.086 215.151 235.478 216.248 244.786 216.248H253V273H242.322C207.279 273 182.913 260.663 169.224 235.988C159.916 241.471 149.512 245.584 138.014 248.325C126.515 251.615 113.648 253.26 99.4116 253.26C55.06 253.26 21.9332 240.1 0.0312119 213.78C-21.3233 187.461 -32.0005 152.368 -32.0005 108.501V-189.241C-32.0005 -233.656 -21.3233 -268.749 0.0312119 -294.52C21.9332 -320.84 55.06 -334 99.4116 -334ZM99.4116 -275.603C76.4145 -275.603 59.1667 -268.201 47.6681 -253.396C36.7171 -239.139 31.2416 -218.851 31.2416 -192.531V111.791C31.2416 138.111 36.7171 158.673 47.6681 173.478C59.1667 187.735 76.4145 194.863 99.4116 194.863C122.956 194.863 140.204 187.735 151.155 173.478C162.106 158.673 167.582 138.111 167.582 111.791V-192.531C167.582 -218.851 162.106 -239.139 151.155 -253.396C140.204 -268.201 122.956 -275.603 99.4116 -275.603Z" fill="white"/>
</g>
</g>
<defs>
<clipPath id="clip0_151_2">
<rect x="-0.000488281" width="433" height="432" rx="216" fill="white"/>
</clipPath>
<clipPath id="clip1_151_2">
<rect x="53.9995" y="53" width="325" height="327" rx="162.5" fill="white"/>
</clipPath>
</defs>
</svg>
