<svg width="1116" height="900" viewBox="0 0 1116 900" fill="none" xmlns="http://www.w3.org/2000/svg">
<circle cx="626.496" cy="781.234" r="12.7172" fill="#E33424"/>
<circle cx="665.396" cy="764.776" r="12.7172" fill="#E33424"/>
<circle cx="704.296" cy="742.335" r="12.7172" fill="#E33424"/>
<circle cx="744.691" cy="716.9" r="12.7172" fill="#E33424"/>
<circle cx="783.591" cy="692.962" r="12.7172" fill="#E33424"/>
<circle cx="822.49" cy="669.024" r="12.7172" fill="#E33424"/>
<circle cx="861.39" cy="645.086" r="12.7172" fill="#E33424"/>
<circle cx="900.289" cy="621.147" r="12.7172" fill="#E33424"/>
<circle cx="942.181" cy="597.209" r="12.7172" fill="#E33424"/>
<circle cx="981.08" cy="573.271" r="12.7172" fill="#E33424"/>
<circle cx="1025.97" cy="545.837" r="12.7172" fill="#E33424"/>
<circle cx="1069.86" cy="518.914" r="12.7172" fill="#E33424"/>
<circle cx="1103.28" cy="477.015" r="12.7172" fill="#E33424"/>
<circle cx="182.625" cy="519.648" r="12.7172" transform="rotate(62.0012 182.625 519.648)" fill="#E33424"/>
<circle cx="219.417" cy="544.268" r="12.7172" transform="rotate(62.0012 219.417 544.268)" fill="#E33424"/>
<circle cx="257.494" cy="568.08" r="12.7172" transform="rotate(62.0012 257.494 568.08)" fill="#E33424"/>
<circle cx="298.916" cy="591.807" r="12.7172" transform="rotate(62.0012 298.916 591.807)" fill="#E33424"/>
<circle cx="338.314" cy="614.916" r="12.7172" transform="rotate(62.0012 338.314 614.916)" fill="#E33424"/>
<circle cx="377.712" cy="638.024" r="12.7172" transform="rotate(62.0012 377.712 638.024)" fill="#E33424"/>
<circle cx="417.11" cy="661.134" r="12.7172" transform="rotate(62.0012 417.11 661.134)" fill="#E33424"/>
<circle cx="456.508" cy="684.243" r="12.7172" transform="rotate(62.0012 456.508 684.243)" fill="#E33424"/>
<circle cx="497.31" cy="709.993" r="12.7172" transform="rotate(62.0012 497.31 709.993)" fill="#E33424"/>
<circle cx="539.708" cy="737.102" r="12.7172" transform="rotate(62.0012 539.708 737.102)" fill="#E33424"/>
<circle cx="581.831" cy="763.151" r="12.7172" transform="rotate(62.0012 581.831 763.151)" fill="#E33424"/>
<circle cx="626.832" cy="186.107" r="12.7172" transform="rotate(-178.466 626.832 186.107)" fill="#E33424"/>
<circle cx="587.945" cy="199.131" r="12.7172" transform="rotate(-178.466 587.945 199.131)" fill="#E33424"/>
<circle cx="548.459" cy="220.523" r="12.7172" transform="rotate(-178.466 548.459 220.523)" fill="#E33424"/>
<circle cx="507.397" cy="244.867" r="12.7172" transform="rotate(-178.466 507.397 244.867)" fill="#E33424"/>
<circle cx="467.871" cy="267.755" r="12.7172" transform="rotate(-178.466 467.871 267.755)" fill="#E33424"/>
<circle cx="428.344" cy="290.644" r="12.7172" transform="rotate(-178.466 428.344 290.644)" fill="#E33424"/>
<circle cx="388.818" cy="313.533" r="12.7172" transform="rotate(-178.466 388.818 313.533)" fill="#E33424"/>
<circle cx="349.292" cy="336.421" r="12.7172" transform="rotate(-178.466 349.292 336.421)" fill="#E33424"/>
<circle cx="306.774" cy="359.229" r="12.7172" transform="rotate(-178.466 306.774 359.229)" fill="#E33424"/>
<circle cx="267.248" cy="382.118" r="12.7172" transform="rotate(-178.466 267.248 382.118)" fill="#E33424"/>
<circle cx="224.69" cy="408.422" r="12.7172" transform="rotate(-178.466 224.69 408.422)" fill="#E33424"/>
<circle cx="182.48" cy="434.97" r="12.7172" transform="rotate(-178.466 182.48 434.97)" fill="#E33424"/>
<circle cx="148.054" cy="478.367" r="12.7172" transform="rotate(-178.466 148.054 478.367)" fill="#E33424"/>
<circle cx="666.885" cy="199.227" r="12.7172" transform="rotate(62.0012 666.885 199.227)" fill="#E33424"/>
<circle cx="704.166" cy="218.718" r="12.7172" transform="rotate(62.0012 704.166 218.718)" fill="#E33424"/>
<circle cx="742.243" cy="242.529" r="12.7172" transform="rotate(62.0012 742.243 242.529)" fill="#E33424"/>
<circle cx="783.664" cy="266.256" r="12.7172" transform="rotate(62.0012 783.664 266.256)" fill="#E33424"/>
<circle cx="823.062" cy="289.365" r="12.7172" transform="rotate(62.0012 823.062 289.365)" fill="#E33424"/>
<circle cx="862.46" cy="312.475" r="12.7172" transform="rotate(62.0012 862.46 312.475)" fill="#E33424"/>
<circle cx="901.858" cy="335.584" r="12.7172" transform="rotate(62.0012 901.858 335.584)" fill="#E33424"/>
<circle cx="941.256" cy="358.691" r="12.7172" transform="rotate(62.0012 941.256 358.691)" fill="#E33424"/>
<circle cx="982.059" cy="384.442" r="12.7172" transform="rotate(62.0012 982.059 384.442)" fill="#E33424"/>
<circle cx="1023.46" cy="408.551" r="12.7172" transform="rotate(62.0012 1023.46 408.551)" fill="#E33424"/>
<circle cx="1069.58" cy="434.601" r="12.7172" transform="rotate(62.0012 1069.58 434.601)" fill="#E33424"/>
</svg>
