<svg width="247" height="880" viewBox="0 0 247 880" fill="none" xmlns="http://www.w3.org/2000/svg">
<ellipse cx="19" cy="19.5" rx="9" ry="8.5" fill="#F0A738"/>
<ellipse cx="19" cy="54.5" rx="9" ry="8.5" fill="#F0A738"/>
<ellipse cx="19" cy="89.5" rx="9" ry="8.5" fill="#F0A738"/>
<ellipse cx="19" cy="124.5" rx="9" ry="8.5" fill="#F0A738"/>
<ellipse cx="19" cy="159.5" rx="9" ry="8.5" fill="#F0A738"/>
<ellipse cx="19" cy="194.5" rx="9" ry="8.5" fill="#F0A738"/>
<ellipse cx="19" cy="229.5" rx="9" ry="8.5" fill="#F0A738"/>
<ellipse cx="19" cy="264.5" rx="9" ry="8.5" fill="#F0A738"/>
<ellipse cx="19" cy="299.5" rx="9" ry="8.5" fill="#F0A738"/>
<ellipse cx="19" cy="334.5" rx="9" ry="8.5" fill="#F0A738"/>
<ellipse cx="19" cy="369.5" rx="9" ry="8.5" fill="#F0A738"/>
<ellipse cx="19" cy="404.5" rx="9" ry="8.5" fill="#F0A738"/>
<ellipse cx="19" cy="439.5" rx="9" ry="8.5" fill="#F0A738"/>
<ellipse cx="19" cy="474.5" rx="9" ry="8.5" fill="#F0A738"/>
<ellipse cx="19" cy="509.5" rx="9" ry="8.5" fill="#F0A738"/>
<ellipse cx="19" cy="544.5" rx="9" ry="8.5" fill="#F0A738"/>
<ellipse cx="19" cy="579.5" rx="9" ry="8.5" fill="#F0A738"/>
<ellipse cx="19" cy="614.5" rx="9" ry="8.5" fill="#F0A738"/>
<ellipse cx="19" cy="649.5" rx="9" ry="8.5" fill="#F0A738"/>
<ellipse cx="19" cy="684.5" rx="9" ry="8.5" fill="#F0A738"/>
<ellipse cx="19" cy="719.5" rx="9" ry="8.5" fill="#F0A738"/>
<ellipse cx="19" cy="754.5" rx="9" ry="8.5" fill="#F0A738"/>
<ellipse cx="19" cy="789.5" rx="9" ry="8.5" fill="#F0A738"/>
<ellipse cx="19" cy="824.5" rx="9" ry="8.5" fill="#F0A738"/>
<ellipse cx="53.5" cy="861" rx="9" ry="8.5" transform="rotate(-90 53.5 861)" fill="#F0A738"/>
<ellipse cx="18.5" cy="861" rx="9" ry="8.5" transform="rotate(-90 18.5 861)" fill="#F0A738"/>
<ellipse cx="88.5" cy="861" rx="9" ry="8.5" transform="rotate(-90 88.5 861)" fill="#F0A738"/>
<ellipse cx="123.5" cy="861" rx="9" ry="8.5" transform="rotate(-90 123.5 861)" fill="#F0A738"/>
<ellipse cx="158.5" cy="861" rx="9" ry="8.5" transform="rotate(-90 158.5 861)" fill="#F0A738"/>
<ellipse cx="193.5" cy="861" rx="9" ry="8.5" transform="rotate(-90 193.5 861)" fill="#F0A738"/>
<ellipse cx="227.5" cy="861" rx="9" ry="8.5" transform="rotate(-90 227.5 861)" fill="#F0A738"/>
<ellipse cx="52.5" cy="19" rx="9" ry="8.5" transform="rotate(-90 52.5 19)" fill="#F0A738"/>
<ellipse cx="87.5" cy="19" rx="9" ry="8.5" transform="rotate(-90 87.5 19)" fill="#F0A738"/>
<ellipse cx="122.5" cy="19" rx="9" ry="8.5" transform="rotate(-90 122.5 19)" fill="#F0A738"/>
<ellipse cx="157.5" cy="19" rx="9" ry="8.5" transform="rotate(-90 157.5 19)" fill="#F0A738"/>
<ellipse cx="192.5" cy="19" rx="9" ry="8.5" transform="rotate(-90 192.5 19)" fill="#F0A738"/>
<ellipse cx="227" cy="19.5" rx="9" ry="8.5" fill="#F0A738"/>
<ellipse cx="227" cy="54.5" rx="9" ry="8.5" fill="#F0A738"/>
<ellipse cx="227" cy="89.5" rx="9" ry="8.5" fill="#F0A738"/>
<ellipse cx="227" cy="124.5" rx="9" ry="8.5" fill="#F0A738"/>
<ellipse cx="227" cy="159.5" rx="9" ry="8.5" fill="#F0A738"/>
<ellipse cx="227" cy="194.5" rx="9" ry="8.5" fill="#F0A738"/>
<ellipse cx="227" cy="229.5" rx="9" ry="8.5" fill="#F0A738"/>
<ellipse cx="227" cy="264.5" rx="9" ry="8.5" fill="#F0A738"/>
<ellipse cx="227" cy="299.5" rx="9" ry="8.5" fill="#F0A738"/>
<ellipse cx="227" cy="334.5" rx="9" ry="8.5" fill="#F0A738"/>
<ellipse cx="227" cy="369.5" rx="9" ry="8.5" fill="#F0A738"/>
<ellipse cx="227" cy="404.5" rx="9" ry="8.5" fill="#F0A738"/>
<ellipse cx="227" cy="439.5" rx="9" ry="8.5" fill="#F0A738"/>
<ellipse cx="227" cy="474.5" rx="9" ry="8.5" fill="#F0A738"/>
<ellipse cx="227" cy="509.5" rx="9" ry="8.5" fill="#F0A738"/>
<ellipse cx="227" cy="544.5" rx="9" ry="8.5" fill="#F0A738"/>
<ellipse cx="227" cy="579.5" rx="9" ry="8.5" fill="#F0A738"/>
<ellipse cx="227" cy="614.5" rx="9" ry="8.5" fill="#F0A738"/>
<ellipse cx="227" cy="649.5" rx="9" ry="8.5" fill="#F0A738"/>
<ellipse cx="227" cy="684.5" rx="9" ry="8.5" fill="#F0A738"/>
<ellipse cx="227" cy="719.5" rx="9" ry="8.5" fill="#F0A738"/>
<ellipse cx="227" cy="754.5" rx="9" ry="8.5" fill="#F0A738"/>
<ellipse cx="227" cy="789.5" rx="9" ry="8.5" fill="#F0A738"/>
<ellipse cx="227" cy="824.5" rx="9" ry="8.5" fill="#F0A738"/>
<g filter="url(#filter0_f_371_8)">
<ellipse cx="19" cy="19.5" rx="9" ry="8.5" fill="#F0A738"/>
<ellipse cx="19" cy="54.5" rx="9" ry="8.5" fill="#F0A738"/>
<ellipse cx="19" cy="89.5" rx="9" ry="8.5" fill="#F0A738"/>
<ellipse cx="19" cy="124.5" rx="9" ry="8.5" fill="#F0A738"/>
<ellipse cx="19" cy="159.5" rx="9" ry="8.5" fill="#F0A738"/>
<ellipse cx="19" cy="194.5" rx="9" ry="8.5" fill="#F0A738"/>
<ellipse cx="19" cy="229.5" rx="9" ry="8.5" fill="#F0A738"/>
<ellipse cx="19" cy="264.5" rx="9" ry="8.5" fill="#F0A738"/>
<ellipse cx="19" cy="299.5" rx="9" ry="8.5" fill="#F0A738"/>
<ellipse cx="19" cy="334.5" rx="9" ry="8.5" fill="#F0A738"/>
<ellipse cx="19" cy="369.5" rx="9" ry="8.5" fill="#F0A738"/>
<ellipse cx="19" cy="404.5" rx="9" ry="8.5" fill="#F0A738"/>
<ellipse cx="19" cy="439.5" rx="9" ry="8.5" fill="#F0A738"/>
<ellipse cx="19" cy="474.5" rx="9" ry="8.5" fill="#F0A738"/>
<ellipse cx="19" cy="509.5" rx="9" ry="8.5" fill="#F0A738"/>
<ellipse cx="19" cy="544.5" rx="9" ry="8.5" fill="#F0A738"/>
<ellipse cx="19" cy="579.5" rx="9" ry="8.5" fill="#F0A738"/>
<ellipse cx="19" cy="614.5" rx="9" ry="8.5" fill="#F0A738"/>
<ellipse cx="19" cy="649.5" rx="9" ry="8.5" fill="#F0A738"/>
<ellipse cx="19" cy="684.5" rx="9" ry="8.5" fill="#F0A738"/>
<ellipse cx="19" cy="719.5" rx="9" ry="8.5" fill="#F0A738"/>
<ellipse cx="19" cy="754.5" rx="9" ry="8.5" fill="#F0A738"/>
<ellipse cx="19" cy="789.5" rx="9" ry="8.5" fill="#F0A738"/>
<ellipse cx="19" cy="824.5" rx="9" ry="8.5" fill="#F0A738"/>
<ellipse cx="53.5" cy="861" rx="9" ry="8.5" transform="rotate(-90 53.5 861)" fill="#F0A738"/>
<ellipse cx="18.5" cy="860" rx="9" ry="8.5" transform="rotate(-90 18.5 860)" fill="#F0A738"/>
<g filter="url(#filter1_f_371_8)">
<ellipse cx="228" cy="860.5" rx="9" ry="8.5" fill="#F0A738"/>
</g>
<ellipse cx="88.5" cy="861" rx="9" ry="8.5" transform="rotate(-90 88.5 861)" fill="#F0A738"/>
<ellipse cx="123.5" cy="861" rx="9" ry="8.5" transform="rotate(-90 123.5 861)" fill="#F0A738"/>
<ellipse cx="158.5" cy="861" rx="9" ry="8.5" transform="rotate(-90 158.5 861)" fill="#F0A738"/>
<ellipse cx="193.5" cy="861" rx="9" ry="8.5" transform="rotate(-90 193.5 861)" fill="#F0A738"/>
<ellipse cx="52.5" cy="19" rx="9" ry="8.5" transform="rotate(-90 52.5 19)" fill="#F0A738"/>
<ellipse cx="87.5" cy="19" rx="9" ry="8.5" transform="rotate(-90 87.5 19)" fill="#F0A738"/>
<ellipse cx="122.5" cy="19" rx="9" ry="8.5" transform="rotate(-90 122.5 19)" fill="#F0A738"/>
<ellipse cx="157.5" cy="19" rx="9" ry="8.5" transform="rotate(-90 157.5 19)" fill="#F0A738"/>
<ellipse cx="192.5" cy="19" rx="9" ry="8.5" transform="rotate(-90 192.5 19)" fill="#F0A738"/>
<ellipse cx="227" cy="19.5" rx="9" ry="8.5" fill="#F0A738"/>
<ellipse cx="227" cy="54.5" rx="9" ry="8.5" fill="#F0A738"/>
<ellipse cx="227" cy="89.5" rx="9" ry="8.5" fill="#F0A738"/>
<ellipse cx="227" cy="124.5" rx="9" ry="8.5" fill="#F0A738"/>
<ellipse cx="227" cy="159.5" rx="9" ry="8.5" fill="#F0A738"/>
<ellipse cx="227" cy="194.5" rx="9" ry="8.5" fill="#F0A738"/>
<ellipse cx="227" cy="229.5" rx="9" ry="8.5" fill="#F0A738"/>
<ellipse cx="227" cy="264.5" rx="9" ry="8.5" fill="#F0A738"/>
<ellipse cx="227" cy="299.5" rx="9" ry="8.5" fill="#F0A738"/>
<ellipse cx="227" cy="334.5" rx="9" ry="8.5" fill="#F0A738"/>
<ellipse cx="227" cy="369.5" rx="9" ry="8.5" fill="#F0A738"/>
<ellipse cx="227" cy="404.5" rx="9" ry="8.5" fill="#F0A738"/>
<ellipse cx="227" cy="439.5" rx="9" ry="8.5" fill="#F0A738"/>
<ellipse cx="227" cy="474.5" rx="9" ry="8.5" fill="#F0A738"/>
<ellipse cx="227" cy="509.5" rx="9" ry="8.5" fill="#F0A738"/>
<ellipse cx="227" cy="544.5" rx="9" ry="8.5" fill="#F0A738"/>
<ellipse cx="227" cy="579.5" rx="9" ry="8.5" fill="#F0A738"/>
<ellipse cx="227" cy="614.5" rx="9" ry="8.5" fill="#F0A738"/>
<ellipse cx="227" cy="649.5" rx="9" ry="8.5" fill="#F0A738"/>
<ellipse cx="227" cy="684.5" rx="9" ry="8.5" fill="#F0A738"/>
<ellipse cx="227" cy="719.5" rx="9" ry="8.5" fill="#F0A738"/>
<ellipse cx="227" cy="754.5" rx="9" ry="8.5" fill="#F0A738"/>
<ellipse cx="227" cy="789.5" rx="9" ry="8.5" fill="#F0A738"/>
<ellipse cx="227" cy="824.5" rx="9" ry="8.5" fill="#F0A738"/>
</g>
<defs>
<filter id="filter0_f_371_8" x="0" y="0" width="247" height="880" filterUnits="userSpaceOnUse" color-interpolation-filters="sRGB">
<feFlood flood-opacity="0" result="BackgroundImageFix"/>
<feBlend mode="normal" in="SourceGraphic" in2="BackgroundImageFix" result="shape"/>
<feGaussianBlur stdDeviation="5" result="effect1_foregroundBlur_371_8"/>
</filter>
<filter id="filter1_f_371_8" x="209" y="842" width="38" height="37" filterUnits="userSpaceOnUse" color-interpolation-filters="sRGB">
<feFlood flood-opacity="0" result="BackgroundImageFix"/>
<feBlend mode="normal" in="SourceGraphic" in2="BackgroundImageFix" result="shape"/>
<feGaussianBlur stdDeviation="5" result="effect1_foregroundBlur_371_8"/>
</filter>
</defs>
</svg>
